<?xml version="1.0" standalone="no"?>
<!DOCTYPE svg PUBLIC "-//W3C//DTD SVG 20010904//EN"
 "http://www.w3.org/TR/2001/REC-SVG-20010904/DTD/svg10.dtd">
<svg version="1.0" xmlns="http://www.w3.org/2000/svg"
 width="700.000000pt" height="700.000000pt" viewBox="0 0 700.000000 700.000000"
 preserveAspectRatio="xMidYMid meet">
<metadata>
Created by potrace 1.14, written by Peter Selinger 2001-2017
</metadata>
<g transform="translate(0.000000,700.000000) scale(0.100000,-0.100000)"
fill="#000000" stroke="none">
<path d="M2802 6433 c-15 -15 -101 -129 -190 -253 -89 -124 -224 -311 -299
-415 -170 -235 -173 -239 -173 -267 0 -23 28 -46 95 -82 17 -8 25 -15 19 -16
-7 0 -10 -214 -9 -695 1 -382 -2 -695 -7 -695 -4 0 -81 -42 -170 -93 -222
-127 -318 -178 -327 -173 -4 3 -8 35 -9 73 -5 139 -14 164 -70 179 -27 7 -66
-22 -57 -43 2 -8 0 -11 -5 -8 -19 12 -15 -115 4 -128 7 -5 6 -7 -4 -5 -19 3
-33 -5 -295 -162 -121 -73 -229 -138 -240 -144 -11 -6 -93 -55 -182 -109 -88
-53 -164 -97 -167 -97 -3 0 -6 9 -6 19 0 21 -38 56 -72 67 -14 4 -28 -1 -45
-19 -27 -27 -32 -62 -33 -252 0 -86 -1 -91 -22 -92 -22 -2 -133 -73 -175 -112
-20 -19 -21 -28 -19 -155 2 -92 7 -140 16 -151 11 -13 10 -15 -2 -10 -10 4
-14 -2 -15 -22 -6 -180 -6 -189 14 -234 27 -60 60 -86 218 -168 72 -37 213
-117 315 -178 161 -96 545 -319 680 -395 25 -14 203 -117 395 -228 193 -112
364 -211 380 -220 17 -9 140 -81 275 -160 135 -78 270 -156 300 -172 30 -17
60 -34 65 -38 22 -18 237 -137 354 -197 l124 -63 31 19 c17 10 182 105 366
211 184 106 347 201 362 211 15 11 29 19 32 19 2 0 37 19 78 43 40 24 93 55
118 69 25 14 99 57 165 95 66 39 197 114 290 168 94 54 197 114 230 133 33 19
76 43 95 54 83 48 609 353 650 378 25 15 88 52 140 82 52 31 183 107 290 171
107 63 212 124 232 135 67 38 113 69 127 86 16 20 24 244 9 284 -4 12 -4 22 0
22 9 0 7 240 -2 274 -5 20 -54 57 -152 116 -23 14 -42 28 -43 33 -1 4 -1 71
-1 150 0 130 -2 145 -20 165 -12 12 -33 22 -48 22 -31 0 -75 -27 -67 -41 4 -5
1 -9 -4 -9 -6 0 -11 -9 -11 -20 0 -23 -7 -25 -29 -6 -9 7 -97 62 -196 121 -99
60 -283 171 -408 247 -126 76 -232 138 -236 138 -5 0 -7 21 -6 48 2 68 -10
105 -43 124 -26 15 -31 16 -57 2 -16 -8 -31 -17 -33 -19 -9 -8 -16 -78 -16
-161 l0 -92 -37 24 c-47 29 -353 206 -434 250 l-60 33 -1 649 c-1 358 -4 654
-7 659 -3 4 12 7 34 5 32 -3 43 0 59 19 11 13 19 34 20 46 0 23 -31 47 -46 35
-5 -4 -5 -3 -1 2 4 6 -10 19 -33 30 -23 12 -121 68 -217 126 -97 58 -197 117
-222 131 -25 14 -77 44 -115 67 -37 23 -70 42 -72 42 -2 0 -34 19 -71 42 -38
22 -81 49 -98 58 -16 9 -113 65 -215 125 -181 105 -282 153 -384 181 -46 13
-498 126 -554 139 -16 4 -31 -2 -50 -22z m-492 -1059 c0 -2 -9 0 -20 6 -11 6
-20 13 -20 16 0 2 9 0 20 -6 11 -6 20 -13 20 -16z m1948 -81 c-10 -2 -26 -2
-35 0 -10 3 -2 5 17 5 19 0 27 -2 18 -5z m-1773 -21 c-3 -3 -11 0 -18 7 -9 10
-8 11 6 5 10 -3 15 -9 12 -12z m135 -246 c0 -2 -7 -7 -16 -10 -8 -3 -12 -2 -9
4 6 10 25 14 25 6z m1120 -10 c0 -2 -8 -10 -17 -17 -16 -13 -17 -12 -4 4 13
16 21 21 21 13z m307 -131 c0 -8 -4 -12 -9 -9 -5 3 -6 10 -3 15 9 13 12 11 12
-6z m-397 1 c0 -2 -8 -10 -17 -17 -16 -13 -17 -12 -4 4 13 16 21 21 21 13z
m-60 -75 c-29 -42 -36 -39 -8 3 13 19 24 33 26 31 3 -2 -6 -18 -18 -34z m-50
-71 c-12 -16 -24 -30 -26 -30 -3 0 4 14 16 30 12 17 24 30 26 30 3 0 -4 -13
-16 -30z m1843 -757 c-3 -7 -6 -13 -8 -13 -2 0 -5 6 -8 13 -3 8 1 14 8 14 7 0
11 -6 8 -14z m-845 -38 c-3 -3 -9 2 -12 12 -6 14 -5 15 5 6 7 -7 10 -15 7 -18z
m-1577 -32 c13 -17 13 -17 -6 -3 -11 8 -22 16 -24 17 -2 2 0 3 6 3 6 0 17 -8
24 -17z m-318 -38 c4 -8 3 -16 -1 -19 -4 -3 -9 4 -9 15 -2 23 3 25 10 4z
m2837 -31 c0 -2 -16 4 -35 13 -19 9 -35 20 -35 25 0 4 16 -2 35 -13 19 -12 35
-23 35 -25z m-2396 4 c-3 -4 -11 -5 -19 -1 -21 7 -19 12 4 10 11 0 18 -5 15
-9z m21 -18 c3 -5 1 -10 -4 -10 -6 0 -11 5 -11 10 0 6 2 10 4 10 3 0 8 -4 11
-10z m1500 0 c3 -5 -1 -10 -10 -10 -9 0 -13 5 -10 10 3 6 8 10 10 10 2 0 7 -4
10 -10z m919 -19 c-2 -3 -12 3 -22 13 -16 17 -16 18 5 5 12 -7 20 -15 17 -18z
m96 -121 c69 -40 141 -83 160 -95 131 -83 529 -315 541 -315 7 0 -1 -9 -19
-20 -39 -24 -13 -36 -295 130 -113 65 -223 130 -245 142 -22 13 -100 59 -175
103 l-135 79 1 38 c1 36 2 37 21 25 12 -8 77 -46 146 -87z m-4032 -13 c-1 -40
6 -35 -233 -172 -93 -54 -259 -152 -368 -217 -109 -65 -204 -118 -210 -118 -7
1 -22 6 -34 13 -21 12 -6 22 210 152 354 213 627 375 634 375 1 0 2 -15 1 -33z
m3872 -3 c0 -2 -9 0 -20 6 -11 6 -20 13 -20 16 0 2 9 0 20 -6 11 -6 20 -13 20
-16z m-746 -53 c3 -4 -4 -17 -17 -27 -22 -19 -22 -19 -4 2 9 11 14 24 10 27
-3 4 -4 7 0 7 3 0 8 -4 11 -9z m-3144 -95 c0 -2 -7 -7 -16 -10 -8 -3 -12 -2
-9 4 6 10 25 14 25 6z m3220 -37 c15 -28 5 -23 -15 7 -9 15 -12 23 -6 20 6 -4
16 -16 21 -27z m-1072 -40 c-3 -8 -7 -3 -11 10 -4 17 -3 21 5 13 5 -5 8 -16 6
-23z m-1188 -75 c0 -2 -7 -4 -15 -4 -8 0 -15 4 -15 10 0 5 7 7 15 4 8 -4 15
-8 15 -10z m1000 6 c8 -5 11 -10 5 -10 -5 0 -17 5 -25 10 -8 5 -10 10 -5 10 6
0 17 -5 25 -10z m-2665 -40 c-3 -5 -12 -10 -18 -10 -7 0 -6 4 3 10 19 12 23
12 15 0z m-39 -19 c-3 -4 -34 -25 -68 -46 -75 -44 -64 -28 13 20 61 38 62 38
55 26z m1285 -8 c13 -17 13 -17 -6 -3 -11 8 -22 16 -24 17 -2 2 0 3 6 3 6 0
17 -8 24 -17z m2792 -33 c3 -11 1 -18 -4 -14 -5 3 -9 12 -9 20 0 20 7 17 13
-6z m-3978 -248 c-3 -3 -11 0 -18 7 -9 10 -8 11 6 5 10 -3 15 -9 12 -12z
m3562 2 c-3 -3 -12 -4 -19 -1 -8 3 -5 6 6 6 11 1 17 -2 13 -5z m1812 -57 c-2
-1 -13 -9 -24 -17 -19 -14 -19 -14 -6 3 7 9 18 17 24 17 6 0 8 -1 6 -3z
m-1881 -102 c-3 -3 -9 2 -12 12 -6 14 -5 15 5 6 7 -7 10 -15 7 -18z m1632 11
c0 -2 -7 -7 -16 -10 -8 -3 -12 -2 -9 4 6 10 25 14 25 6z m-3289 -59 c-10 -9
-11 -8 -5 6 3 10 9 15 12 12 3 -3 0 -11 -7 -18z m93 -3 c3 -8 2 -12 -4 -9 -6
3 -10 10 -10 16 0 14 7 11 14 -7z m-557 -120 c-3 -3 -12 -4 -19 -1 -8 3 -5 6
6 6 11 1 17 -2 13 -5z m-167 -72 c0 -15 -2 -15 -10 -2 -13 20 -13 33 0 25 6
-3 10 -14 10 -23z m635 -91 c3 -5 2 -12 -3 -15 -5 -3 -9 1 -9 9 0 17 3 19 12
6z m1430 -119 c-3 -3 -11 0 -18 7 -9 10 -8 11 6 5 10 -3 15 -9 12 -12z m-1191
-107 c-4 -8 -8 -15 -10 -15 -2 0 -4 7 -4 15 0 8 4 15 10 15 5 0 7 -7 4 -15z
m113 -21 c-3 -3 -12 -4 -19 -1 -8 3 -5 6 6 6 11 1 17 -2 13 -5z m33 -14 c0 -5
-2 -10 -4 -10 -3 0 -8 5 -11 10 -3 6 -1 10 4 10 6 0 11 -4 11 -10z m530 -574
c0 -7 -162 -97 -166 -93 -3 3 154 95 164 97 1 0 2 -2 2 -4z m-125 -36 c-3 -5
-12 -10 -18 -10 -7 0 -6 4 3 10 19 12 23 12 15 0z m-30 -99 c3 -5 2 -12 -3
-15 -5 -3 -9 1 -9 9 0 17 3 19 12 6z m-280 -101 c3 -6 -1 -7 -9 -4 -18 7 -21
14 -7 14 6 0 13 -4 16 -10z m130 -78 c-4 -5 -76 33 -100 52 -11 9 8 2 42 -16
34 -18 60 -34 58 -36z m180 58 c-3 -5 -12 -10 -18 -10 -7 0 -6 4 3 10 19 12
23 12 15 0z m-118 -246 c-3 -3 -12 -4 -19 -1 -8 3 -5 6 6 6 11 1 17 -2 13 -5z
m23 -80 c0 -8 -19 -13 -24 -6 -3 5 1 9 9 9 8 0 15 -2 15 -3z m-55 -264 c3 -6
-1 -7 -9 -4 -18 7 -21 14 -7 14 6 0 13 -4 16 -10z m40 -28 c-3 -3 -11 0 -18 7
-9 10 -8 11 6 5 10 -3 15 -9 12 -12z"/>
</g>
</svg>
